<svg xmlns="http://www.w3.org/2000/svg" xmlns:xlink="http://www.w3.org/1999/xlink" width="500" zoomAndPan="magnify" viewBox="0 0 375 374.999991" height="500" preserveAspectRatio="xMidYMid meet" version="1.0"><defs><clipPath id="73131ea6dc"><path d="M 0 7.03125 L 375 7.03125 L 375 375 L 0 375 Z M 0 7.03125 " clip-rule="nonzero"/></clipPath></defs><g clip-path="url(#73131ea6dc)"><path fill="#a91101" d="M 187.5 6.992188 C 291.03125 6.992188 374.960938 90.921875 374.960938 194.453125 C 374.960938 280.402344 317.117188 352.832031 238.242188 374.960938 L 203.183594 250.25 C 227.566406 243.410156 245.445312 221.019531 245.445312 194.453125 C 245.445312 162.453125 219.5 136.507812 187.5 136.507812 C 155.496094 136.507812 129.554688 162.453125 129.554688 194.453125 C 129.554688 221.019531 147.433594 243.410156 171.8125 250.25 L 136.757812 374.960938 C 57.882812 352.832031 0.0390625 280.398438 0.0390625 194.453125 C 0.0390625 90.921875 83.96875 6.992188 187.5 6.992188 Z M 187.5 6.992188 " fill-opacity="1" fill-rule="evenodd"/></g></svg>